<svg xmlns="http://www.w3.org/2000/svg" xmlns:xlink="http://www.w3.org/1999/xlink" width="65" height="65" viewBox="0 0 65 65"><defs><path id="bho2a" d="M239.5 521c17.95 0 32.5 14.552 32.5 32.5 0 17.95-14.55 32.5-32.5 32.5S207 571.45 207 553.5c0-17.948 14.55-32.5 32.5-32.5zM211 553.5c0 15.74 12.76 28.5 28.5 28.5s28.5-12.76 28.5-28.5-12.76-28.5-28.5-28.5-28.5 12.76-28.5 28.5zm27-12.5h4a2 2 0 0 1 2 2v9h5.085c1.705 0 2.403 1.176 1.55 2.614l-9.085 11.31c-.853 1.437-2.248 1.437-3.1 0l-9.086-11.31c-.853-1.438-.155-2.614 1.55-2.614H236v-9a2 2 0 0 1 2-2z"/></defs><g><g transform="translate(-207 -521)"><use fill="#fff" xlink:href="#bho2a"/></g></g></svg>