<svg xmlns="http://www.w3.org/2000/svg" xmlns:xlink="http://www.w3.org/1999/xlink" width="36" height="32" viewBox="0 0 36 32"><defs><path id="n362a" d="M438.337 697v-32h35.326v32zm24.262-2.004c.898 0 2-.625 2.45-1.388l6.606-11.225c.45-.763.45-2.012 0-2.776l-6.606-11.224c-.45-.764-1.552-1.388-2.45-1.388h-13.212c-.899 0-2.001.624-2.45 1.388l-6.606 11.224c-.45.764-.45 2.013 0 2.776l6.606 11.225c.449.763 1.551 1.388 2.45 1.388z"/><path id="n362b" d="M449.387 694.996c-.899 0-2.001-.625-2.45-1.388l-6.606-11.225c-.45-.763-.45-2.012 0-2.776l6.606-11.224c.449-.764 1.551-1.388 2.45-1.388h13.212c.898 0 2 .624 2.45 1.388l6.606 11.224c.45.764.45 2.013 0 2.776l-6.606 11.225c-.45.763-1.552 1.388-2.45 1.388z"/><clipPath id="n362c"><use fill="#fff" xlink:href="#n362a"/></clipPath></defs><g><g clip-path="url(#clip-2628)" transform="translate(-438 -665)"><use fill="#e2574c" xlink:href="#n362b"/><use fill="#fff" fill-opacity="0" stroke="#fff" stroke-linecap="round" stroke-linejoin="round" stroke-miterlimit="50" stroke-width="4" clip-path="url(&quot;#n362c&quot;)" xlink:href="#n362b"/></g></g></svg>