<svg xmlns="http://www.w3.org/2000/svg" xmlns:xlink="http://www.w3.org/1999/xlink" width="95" height="84" viewBox="0 0 95 84"><defs><path id="4kx8a" d="M482.895 149V65h93.21v84zm64.133-5.012c2.387 0 5.315-1.65 6.509-3.668l17.547-29.666c1.193-2.017 1.193-5.317 0-7.335l-17.547-29.666c-1.194-2.017-4.122-3.667-6.509-3.667h-35.095c-2.386 0-5.315 1.65-6.508 3.667l-17.547 29.666c-1.194 2.018-1.194 5.318 0 7.335l17.547 29.666c1.193 2.017 4.122 3.668 6.508 3.668z"/><path id="4kx8b" d="M511.933 143.988c-2.386 0-5.315-1.65-6.508-3.668l-17.547-29.666c-1.194-2.017-1.194-5.317 0-7.335l17.547-29.666c1.193-2.017 4.122-3.667 6.508-3.667h35.095c2.387 0 5.315 1.65 6.509 3.667l17.547 29.666c1.193 2.018 1.193 5.318 0 7.335l-17.547 29.666c-1.194 2.017-4.122 3.668-6.509 3.668z"/><linearGradient id="4kx8c" x1="571.98" x2="486.98" y1="76.99" y2="136.99" gradientUnits="userSpaceOnUse"><stop offset="0" stop-color="#f8f8f8" stop-opacity=".2"/><stop offset="1" stop-color="#f8f8f8" stop-opacity="0"/></linearGradient><clipPath id="4kx8d"><use fill="#fff" xlink:href="#4kx8a"/></clipPath></defs><g><g transform="translate(-482 -65)"><use fill="#e2574c" xlink:href="#4kx8b"/><use fill="url(#4kx8c)" xlink:href="#4kx8b"/><use fill="#fff" fill-opacity="0" stroke="#fff" stroke-linecap="round" stroke-linejoin="round" stroke-miterlimit="50" stroke-width="10" clip-path="url(&quot;#4kx8d&quot;)" xlink:href="#4kx8b"/></g></g></svg>