<svg xmlns="http://www.w3.org/2000/svg" xmlns:xlink="http://www.w3.org/1999/xlink" width="38" height="30" viewBox="0 0 38 30"><defs><path id="rvhna" d="M979.005 4206.56a15.843 15.843 0 0 1-4.479 1.192c1.61-.935 2.847-2.419 3.43-4.188a15.868 15.868 0 0 1-4.953 1.838 7.902 7.902 0 0 0-5.691-2.39c-4.307 0-7.799 3.389-7.799 7.568 0 .593.07 1.17.202 1.724-6.48-.315-12.228-3.327-16.074-7.907a7.369 7.369 0 0 0-1.055 3.805c0 2.626 1.376 4.943 3.469 6.3a7.944 7.944 0 0 1-3.532-.948v.096c0 3.667 2.687 6.725 6.255 7.42a8.02 8.02 0 0 1-3.522.13c.992 3.007 3.872 5.196 7.284 5.257a15.946 15.946 0 0 1-9.685 3.24c-.63 0-1.25-.037-1.86-.106a22.559 22.559 0 0 0 11.954 3.402c14.344 0 22.187-11.535 22.187-21.535 0-.327-.006-.655-.021-.98a15.577 15.577 0 0 0 3.89-3.918z"/></defs><g><g transform="translate(-941 -4203)"><use fill="#fff" xlink:href="#rvhna"/></g></g></svg>