<svg xmlns="http://www.w3.org/2000/svg" xmlns:xlink="http://www.w3.org/1999/xlink" width="146" height="32" viewBox="0 0 146 32"><defs><path id="t9u8a" d="M190.898 4368.643l6.447-10.598c-1.863-1.156-3.928-1.765-6.463-1.77-6.775-.005-12.304 5.453-12.278 12.389-.026 6.912 5.512 12.458 12.308 12.458 4.425 0 8.311-2.358 10.482-5.914l.575 1.821c-2.993 4.018-8.632 7.149-16.084 7.141-12.241-.003-18.884-7.53-18.88-15.506-.004-8 6.968-15.453 18.88-15.458 8.35 0 13.692 3.13 17.221 8.138zm57.605 15.214v-18.22c0-1.214-.994-2.21-2.216-2.21a2.22 2.22 0 0 0-2.228 2.21l.006 18.22h-8.892v-20.43h-5.932l8.545-4.027c.587-.225 1.168-.379 1.834-.379 2.223 0 4.064 1.617 4.393 3.73l7.086-3.327c.572-.224 1.19-.403 1.852-.403 2.453 0 4.474 1.977 4.474 4.4v20.436zm-16.17.011h-8.895l-1.153-4.758c-1.831 2.6-5.527 4.705-10.075 4.696-4.077.01-9.208-3.161-9.222-7.933.014-4.754 5.145-7.865 9.237-7.88 2.902.015 5.492.757 7.612 2.424l-1.986-7.025h-11.544l10.446-3.838c5.266-1.947 9.419 1.677 10.29 4.894zm-11.147-7.96c0-2.492-2.04-4.514-4.553-4.514-2.517 0-4.564 2.022-4.564 4.514 0 2.5 2.047 4.522 4.564 4.522 2.512 0 4.553-2.022 4.553-4.522zm51.784-16.887c6.96 0 12.597 5.596 12.597 12.492 0 6.9-5.636 12.488-12.597 12.488-6.955 0-12.592-5.589-12.592-12.488 0-6.896 5.637-12.492 12.592-12.492zm4.85 19.795l-4.42-16.072c-.384-1.422-1.824-2.275-3.345-1.852-1.423.395-2.275 1.828-1.86 3.301l4.439 16.067c.37 1.443 1.837 2.245 3.285 1.863 1.493-.429 2.297-1.846 1.901-3.307zm26.247 5.052l.006-18.225a2.216 2.216 0 0 0-2.223-2.206 2.22 2.22 0 0 0-2.225 2.206l.004 18.225h-8.891v-20.431h-5.928l8.541-4.027c.587-.23 1.179-.378 1.835-.378 2.222 0 4.068 1.612 4.392 3.728l7.087-3.33c.571-.22 1.189-.398 1.85-.398 2.463 0 4.484 1.971 4.484 4.394v20.442z"/></defs><g><g transform="translate(-167 -4353)"><use xlink:href="#t9u8a"/></g></g></svg>