<svg xmlns="http://www.w3.org/2000/svg" xmlns:xlink="http://www.w3.org/1999/xlink" width="64" height="54" viewBox="0 0 64 54"><defs><path id="dkq4a" d="M620 3792.017h-16.383c-1.746 5.027-6.049 8.106-11.617 8.106-5.568 0-9.808-3.08-11.555-8.106H564v21.957h56zm4 0v21.957a4 4 0 0 1-4 4h-56a4 4 0 0 1-4-4v-21.957a4 4 0 0 1 .168-1.15 1.99 1.99 0 0 1-.11-1.332l6.714-24.147a2.002 2.002 0 0 1 1.933-1.487h45.959a2 2 0 0 1 1.928 1.468l7.344 25.443c.078.284.092.572.048.845.01.119.016.239.016.36zm-40.254-4c.09 4.8 3.432 8.105 8.254 8.105 4.822 0 8.227-3.305 8.316-8.105h18.647l-5.82-20.115h-42.899l-5.609 20.115z"/></defs><g><g transform="translate(-560 -3764)"><use fill="#fff" xlink:href="#dkq4a"/></g></g></svg>