<svg xmlns="http://www.w3.org/2000/svg" xmlns:xlink="http://www.w3.org/1999/xlink" width="32" height="32" viewBox="0 0 32 32"><defs><path id="jkhna" d="M540.058 6604.736a.788.788 0 0 1-.14.435c-1.26 1.736-3.072 3.566-3.779 3.818-3.738-.173-8.996-3.46-14.823-9.268-5.826-5.808-9.123-11.056-9.299-14.796.263-.703 2.098-2.499 3.855-3.764.217-.15.391-.163.471-.15.566.822 3.666 5.479 4.147 6.242v.025c0 .063-.013.292-.19.628-.221.419-.953 1.706-1.563 2.772l-.63 1.099.73 1.036c.54.767 1.83 2.436 4.399 4.996 2.557 2.55 4.236 3.84 5.009 4.382l1.039.727 1.102-.627c1.417-.806 2.43-1.373 2.778-1.555.326-.171.554-.201.644-.2.855.547 5.426 3.557 6.243 4.118a.461.461 0 0 1 .007.082s0-.148 0 0zm1.938 0c0-.669-.258-1.286-.736-1.63-.506-.364-5.822-3.9-6.437-4.29-.653-.413-1.62-.356-2.59.155-.513.269-2.074 1.153-2.838 1.588-.677-.474-2.27-1.693-4.745-4.16-2.493-2.485-3.704-4.061-4.177-4.733.437-.76 1.325-2.318 1.597-2.832.278-.527.42-1.068.42-1.556 0-.378-.085-.726-.26-1.011-.401-.655-3.963-5.995-4.307-6.483-.564-.803-1.954-1.124-3.216-.243-.046.032-4.693 3.39-4.693 5.3v.046c.175 5.456 5.474 11.844 9.888 16.244s10.82 9.682 16.271 9.855c1.94.062 5.29-4.63 5.324-4.677a2.765 2.765 0 0 0 .499-1.573z"/></defs><g><g transform="translate(-510 -6579)"><use fill="#e2574c" xlink:href="#jkhna"/></g></g></svg>