<svg xmlns="http://www.w3.org/2000/svg" xmlns:xlink="http://www.w3.org/1999/xlink" width="32" height="32" viewBox="0 0 32 32"><defs><path id="2jufa" d="M960 2550.001c8.837 0 16 7.164 16 16 0 8.837-7.163 16-16 16-8.836 0-16-7.163-16-16 0-8.836 7.164-16 16-16zm1.948 11.014h2.062v-3.045h-2.424v.01c-2.936.104-3.538 1.756-3.591 3.49h-.006v1.52h-2v2.984h2v7.996h3.015v-7.996h2.468l.476-2.984h-2.944v-.919c0-.584.389-1.056.944-1.056z"/></defs><g><g transform="translate(-944 -2550)"><use fill="#fff" xlink:href="#2jufa"/></g></g></svg>