<svg xmlns="http://www.w3.org/2000/svg" xmlns:xlink="http://www.w3.org/1999/xlink" width="52" height="46" viewBox="0 0 52 46"><defs><path id="tfh7a" d="M410.505 7564v-46h50.99v46zm35.393-2.006c1.348 0 3.002-.936 3.676-2.082l9.909-16.838c.673-1.144.673-3.017 0-4.163l-9.91-16.836c-.673-1.147-2.327-2.083-3.675-2.083H426.08c-1.348 0-3.002.936-3.675 2.083l-9.91 16.836c-.673 1.146-.673 3.019 0 4.163l9.91 16.838c.673 1.146 2.327 2.082 3.675 2.082z"/><path id="tfh7b" d="M426.08 7561.994c-1.348 0-3.002-.936-3.675-2.082l-9.91-16.838c-.673-1.144-.673-3.017 0-4.163l9.91-16.836c.673-1.147 2.327-2.083 3.675-2.083h19.818c1.348 0 3.002.936 3.676 2.083l9.909 16.836c.673 1.146.673 3.019 0 4.163l-9.91 16.838c-.673 1.146-2.327 2.082-3.675 2.082z"/><path id="tfh7d" d="M441.136 7536.455c-.503-2.432-2.58-3.804-4.942-3.804-2.455 0-4.124 1.184-4.124 2.931 0 2.09 2.77 2.776 5.604 3.65 3.148.997 7.083 2.525 7.083 6.611 0 3.774-3.306 6.519-8.217 6.519-4.69 0-7.776-2.683-8.72-6.488l.023-.006a1.699 1.699 0 0 1 1.663-2.029c.74 0 1.37.478 1.6 1.144l.051-.013c.41 2.277 2.33 4.303 5.51 4.303 2.801 0 4.438-1.434 4.438-3.306 0-2.713-3.4-3.274-6.516-4.304-2.582-.873-6.076-2.09-6.076-5.894 0-3.4 3.305-6.113 7.838-6.113 4.093 0 7.304 2.401 8.123 5.895l-.137.037a1.698 1.698 0 0 1-1.684 1.511c-.557 0-1.05-.27-1.36-.687z"/><clipPath id="tfh7c"><use fill="#fff" xlink:href="#tfh7a"/></clipPath></defs><g><g transform="translate(-410 -7518)"><use fill="#e2574c" xlink:href="#tfh7b"/><use fill="#fff" fill-opacity="0" stroke="#fff" stroke-linecap="round" stroke-linejoin="round" stroke-miterlimit="50" stroke-width="4" clip-path="url(&quot;#tfh7c&quot;)" xlink:href="#tfh7b"/></g><g transform="translate(-410 -7518)"><use fill="#fff" xlink:href="#tfh7d"/></g></g></svg>