<svg xmlns="http://www.w3.org/2000/svg" xmlns:xlink="http://www.w3.org/1999/xlink" width="32" height="32" viewBox="0 0 32 32"><defs><path id="7o27a" d="M961 5517.001c8.837 0 16 7.164 16 16s-7.163 16-16 16c-8.836 0-16-7.164-16-16s7.164-16 16-16z"/><path id="7o27b" d="M961.484 5524.007c-5.637 0-8.48 3.913-8.48 7.177 0 1.975.773 3.733 2.43 4.388.272.108.516.003.594-.288.055-.2.185-.71.243-.922.08-.287.048-.388-.17-.64-.479-.545-.784-1.251-.784-2.253 0-2.903 2.243-5.502 5.841-5.502 3.186 0 4.937 1.885 4.937 4.403 0 3.312-1.514 6.108-3.761 6.108-1.242 0-2.17-.993-1.873-2.213.357-1.455 1.047-3.026 1.047-4.076 0-.94-.521-1.726-1.6-1.726-1.268 0-2.288 1.272-2.288 2.975 0 1.084.379 1.817.379 1.817l-1.527 6.26c-.453 1.859-.068 4.136-.035 4.366.02.137.2.169.282.066.117-.148 1.628-1.955 2.142-3.76.146-.511.834-3.158.834-3.158.413.762 1.617 1.432 2.899 1.432 3.814 0 6.401-3.366 6.401-7.873 0-3.408-2.98-6.581-7.51-6.581z"/></defs><g><g transform="translate(-945 -5517)"><use fill="#c8232c" xlink:href="#7o27a"/></g><g transform="translate(-945 -5517)"><use fill="#fff" xlink:href="#7o27b"/></g></g></svg>