<svg xmlns="http://www.w3.org/2000/svg" xmlns:xlink="http://www.w3.org/1999/xlink" width="32" height="32" viewBox="0 0 32 32"><defs><path id="yevoa" d="M851 5517.001c8.837 0 16 7.163 16 16 0 8.836-7.163 16-16 16s-16-7.164-16-16c0-8.837 7.164-16 16-16z"/><path id="yevob" d="M860.003 5527.478v11.046a3.483 3.483 0 0 1-3.48 3.479h-11.046a3.483 3.483 0 0 1-3.48-3.48v-11.045c0-1.919 1.561-3.48 3.48-3.48h11.046a3.484 3.484 0 0 1 3.48 3.48zm-5.01-1.458l.01 2.988 3.01-.01v-2.988h-.394zm-7.005 6.981a3.015 3.015 0 0 0 3.012 3.011 3.016 3.016 0 0 0 3.012-3.011c0-.668-.516-3.013-3.012-3.013-2.497 0-3.012 2.345-3.012 3.013zm10.042-2.004h-2.47c.232.57.363 1.35.363 2.004a4.929 4.929 0 0 1-4.923 4.923 4.929 4.929 0 0 1-4.923-4.923c0-.654.13-1.434.362-2.004h-2.5v7.308c0 .951.774 1.725 1.726 1.725h10.64c.95 0 1.725-.774 1.725-1.725z"/></defs><g><g transform="translate(-835 -5517)"><use fill="#3f729b" xlink:href="#yevoa"/></g><g transform="translate(-835 -5517)"><use fill="#fff" xlink:href="#yevob"/></g></g></svg>