<svg xmlns="http://www.w3.org/2000/svg" xmlns:xlink="http://www.w3.org/1999/xlink" width="32" height="32" viewBox="0 0 32 32"><defs><path id="aq3ja" d="M1015 5517.001c8.837 0 16 7.164 16 16s-7.163 16-16 16c-8.836 0-16-7.164-16-16s7.164-16 16-16z"/><path id="aq3jb" d="M1025.003 5527.78a7.942 7.942 0 0 1-2.24.596 3.814 3.814 0 0 0 1.715-2.094 7.944 7.944 0 0 1-2.476.919 3.95 3.95 0 0 0-2.846-1.195c-2.154 0-3.9 1.694-3.9 3.784 0 .296.035.585.102.862a11.185 11.185 0 0 1-8.037-3.954 3.684 3.684 0 0 0-.528 1.902c0 1.314.688 2.472 1.734 3.151a3.97 3.97 0 0 1-1.766-.474v.048c0 1.834 1.344 3.363 3.128 3.71a3.974 3.974 0 0 1-1.761.065c.496 1.504 1.936 2.598 3.642 2.628a7.973 7.973 0 0 1-4.842 1.62c-.315 0-.625-.018-.93-.053a11.279 11.279 0 0 0 5.977 1.701c7.172 0 11.093-5.767 11.093-10.767 0-.164-.003-.328-.01-.49a7.784 7.784 0 0 0 1.945-1.959z"/></defs><g><g transform="translate(-999 -5517)"><use fill="#26a6d1" xlink:href="#aq3ja"/></g><g transform="translate(-999 -5517)"><use fill="#fff" xlink:href="#aq3jb"/></g></g></svg>