<svg xmlns="http://www.w3.org/2000/svg" xmlns:xlink="http://www.w3.org/1999/xlink" width="32" height="32" viewBox="0 0 32 32"><defs><path id="aifca" d="M1070 5517.001c8.837 0 16 7.164 16 16s-7.163 16-16 16-16-7.164-16-16 7.163-16 16-16z"/><path id="aifcb" d="M1072.499 5539.823c-2.113 1.865-8.536 1.615-8.536-1.845 0-3.462 4.833-3.514 5.227-3.514.39 0 .457-.11.13-.46-.327-.35-.85-1.031-.24-1.778-1.09.044-4.093-.55-4.093-3.315 0-2.766 2.895-3.95 3.94-3.95h5.203s-.238.198-.783.504c-.545.307-1.567.155-1.567.155s1.415.876 1.415 2.589-.827 2.459-1.872 3.38c-1.046.922-.436 1.471 1.197 2.634 1.633 1.162 2.09 3.735-.021 5.6zm-3.79-14.335c-3.048 0-1.873 6.057.72 6.057 3.439 0 1.654-6.146-.72-6.057zm3.832 12.313c0-1.494-1.423-2.24-2.22-2.854-2.94 0-4.508.79-4.508 2.393 0 1.602 1.154 2.678 3.308 2.678 2.152 0 3.42-.723 3.42-2.217zm4.474-12.8v1.97h1.959v1.022h-1.959v1.973h-1.017v-1.973h-1.993v-1.023h1.993V5525z"/></defs><g><g transform="translate(-1054 -5517)"><use fill="#dd4b39" xlink:href="#aifca"/></g><g transform="translate(-1054 -5517)"><use fill="#fff" xlink:href="#aifcb"/></g></g></svg>