<svg xmlns="http://www.w3.org/2000/svg" xmlns:xlink="http://www.w3.org/1999/xlink" width="32" height="32" viewBox="0 0 32 32"><defs><path id="syowa" d="M746.995 6077.01c3.396 0 6.998 2.86 6.998 4.995v4.997c0 1.923-.8 5.604-2.945 7.294a2 2 0 0 0 .402 3.388l8.703 4.126c.068.032.834.161.834 1.23l.001 1.953h-27.984v-2.03c0-.794.597-1.044.835-1.153l8.782-4.145a1.998 1.998 0 0 0 .416-3.375c-2.078-1.669-3.045-5.335-3.045-7.288v-4.997c0-2.09 3.637-4.996 7.003-4.996 3.367 0 0 0 0 0zm-9.004 4.995v4.997c0 2.184.997 6.602 3.794 8.847l-8.783 4.144s-1.998.892-1.998 2v3c0 1.105.895 2 1.998 2h27.986a1.998 1.998 0 0 0 2-2v-3c0-1.175-2-2-2-2l-8.703-4.126c2.77-2.181 3.708-6.464 3.708-8.865v-4.997c0-3.31-4.582-6.996-8.998-6.996-4.416 0-9.003 3.686-9.003 6.996z"/></defs><g><g transform="translate(-731 -6075)"><use fill="#ccd0d2" xlink:href="#syowa"/></g></g></svg>