<svg xmlns="http://www.w3.org/2000/svg" xmlns:xlink="http://www.w3.org/1999/xlink" width="16" height="11" viewBox="0 0 16 11"><defs><path id="d2t2a" d="M929.75 5316.01c.312 0 .566.06.762.178l-7.512 5.8-7.38-5.698c.327-.186.739-.28 1.13-.28zm1.25 1.249v7.968c0 .829-.421 1.75-1.25 1.75h-13c-.828 0-1.75-.921-1.75-1.75v-7.968c0-.06.005-.118.014-.174l7.659 5.942a.5.5 0 0 0 .654 0l7.666-5.947c.005.057.007.117.007.179z"/></defs><g><g transform="translate(-915 -5316)"><use fill="#ddd" xlink:href="#d2t2a"/></g></g></svg>