<svg xmlns="http://www.w3.org/2000/svg" xmlns:xlink="http://www.w3.org/1999/xlink" width="16" height="11" viewBox="0 0 16 11"><defs><path id="4csza" d="M1408.75 6668.009c-.13 0-.304-.006-.452.017l6.702 4.962 6.725-4.98zm-.75 8.218c0 .276.474.75.75.75h13c.276 0 .25-.474.25-.75v-7.177l-6.673 4.977a.499.499 0 0 1-.654 0l-6.673-4.977zm13.75-9.219c.685 0 1.091.288 1.212.855a.5.5 0 0 1 .034.257c.003.044.004.09.004.138v7.969c0 .829-.421 1.75-1.25 1.75h-13c-.828 0-1.75-.921-1.75-1.75v-7.969c0-.041.002-.082.007-.121a.498.498 0 0 1 .186-.476c.314-.433.96-.653 1.557-.653z"/></defs><g><g opacity=".5" transform="translate(-1407 -6667)"><use fill="#fff" xlink:href="#4csza"/></g></g></svg>