<svg xmlns="http://www.w3.org/2000/svg" xmlns:xlink="http://www.w3.org/1999/xlink" width="26" height="32" viewBox="0 0 26 32"><defs><path id="bnx2a" d="M284 6083.185c0-3.468-2.441-6.184-6.037-6.184-3.633 0-5.963 2.774-5.963 6.184V6087h12zm-14 0c0-4.513 3.228-8.184 7.963-8.184 4.717 0 8.037 3.594 8.037 8.184V6087h1c2.206 0 4 1.794 4 4v12c0 2.207-1.794 4-4 4h-18c-2.206 0-4-1.793-4-4v-12c0-2.206 1.794-4 4-4h1zm-1 5.816c-1.102 0-2 .898-2 2v12c0 1.102.898 2 2 2h18c1.102 0 2-.898 2-2v-12c0-1.102-.898-2-2-2zm9 4a2 2 0 0 1 1 3.732v3.268a1 1 0 1 1-2 0v-3.268a2 2 0 0 1 1-3.732z"/></defs><g><g transform="translate(-265 -6075)"><use fill="#ccd0d2" xlink:href="#bnx2a"/></g></g></svg>