<svg xmlns="http://www.w3.org/2000/svg" xmlns:xlink="http://www.w3.org/1999/xlink" width="32" height="28" viewBox="0 0 32 28"><defs><path id="3grwa" d="M1452 6077.001c7.72 0 14 4.486 14 10s-6.28 10-14 10l-.473.002-.356.001c-.549 0-.909-.015-1.47-.098l-1.121-.16-.72.869c-.33.4-2.017 1.785-3.878 2.677.378-1 .658-2.093.683-3.175l.01-.06v-1.394l-1.09-.557c-3.55-1.815-5.585-4.77-5.585-8.105 0-5.514 6.28-10 14-10zm-16 10c0 4.127 2.445 7.723 6.674 9.885 0 .026-.007.044-.007.073 0 1.793-1.005 3.764-1.594 4.78h.001a.904.904 0 0 0 .832 1.262c.076 0 .196-.016.24-.016.01 0 .017 0 .016.003 3.125-.51 6.56-3.271 7.244-4.105.703.105 1.178.12 1.765.12l.83-.002c8.835 0 16-5.372 16-12 0-6.627-7.165-12-16-12-8.838 0-16 5.373-16 12z"/></defs><g><g transform="translate(-1436 -6075)"><use fill="#ccd0d2" xlink:href="#3grwa"/></g></g></svg>