<svg xmlns="http://www.w3.org/2000/svg" xmlns:xlink="http://www.w3.org/1999/xlink" width="18" height="17" viewBox="0 0 18 17"><defs><path id="1eeda" d="M1054.402 7541.191l-1.373 2.422-2.123 3.747a.416.416 0 0 1-.569.154l-1.084-.63a.424.424 0 0 1-.153-.575l1.528-2.696 1.831-3.23 1.661-2.931c.114-.201.37-.271.569-.155l1.084.629a.428.428 0 0 1 .153.576zm3.38.814l1.5 3.005h-5.884l1.667-3.005zm-7.782 6.44l-1.4.966c-.189.132-.323.048-.296-.182l.187-1.652c.027-.23.21-.325.408-.21l1.084.63c.199.116.207.319.017.449zm11.272-3.774c-.29.121-.457.244-.891.024s-2.596-5.273-3.15-6.592c-.553-1.32-2.227-4.827-1.686-5.101.386-.196 1.769 2.568 2.804 4.228.591.945 1.55 2.746 2.314 4.207l.03.058.102.196.028.054.09.171.049.097c.02.036.04.073.058.109l.077.15c.004.008.009.015.012.023.331.638.583 1.13.684 1.318l.022.04c.265.49-.253.896-.543 1.018zm3.728-1.665v1.003a1 1 0 0 1-1 1h-.416l-1.715-3.004H1064a1 1 0 0 1 1 1.001zm-16.532 2.004H1048a1 1 0 0 1-1-1.001v-1.003c0-.553.448-1.001 1-1.001h2.268zm14.41 1.895l-.445.27a.464.464 0 0 1-.631-.156l-.654-1.046a.417.417 0 0 1 .154-.6l.622-.325a.457.457 0 0 1 .611.206l.516 1.004a.5.5 0 0 1-.174.647zm1.578 3.11c-.137-.442-1.18-.472-1.645-1.139-.467-.665-.081-1.008.08-1.166 1.892-1.08 1.565 2.305 1.565 2.305z"/></defs><g><g transform="translate(-1047 -7533)"><use fill="#fff" xlink:href="#1eeda"/></g></g></svg>