<svg xmlns="http://www.w3.org/2000/svg" xmlns:xlink="http://www.w3.org/1999/xlink" width="32" height="26" viewBox="0 0 32 26"><defs><path id="9ls6a" d="M1104.132 4697.93l-1.817 3.028-.582.97H1096c-.149.017-1 .336-1 .97v16.031c0 .53.566.981.798 1h26.265c.298-.022.937-.574.937-.968v-16.032c-.01-.079-.295-1-1-1h-5.731l-.55-.97-1.785-3.03zm10.868-2.001l2.4 4h4.6c2 0 3 2 3 3v16.032c0 1.562-1.625 2.969-2.937 2.969h-26.271c-1.292 0-2.792-1.345-2.792-3v-16.032c0-1.968 2-2.97 3-2.97h4.6l2.4-4zm-6 9c-2.757 0-5 2.243-5 5s2.243 5 5 5 5-2.243 5-5-2.243-5-5-5c0 0 2.757 0 0 0zm0-2a7 7 0 1 1 0 14 7 7 0 0 1 0-14z"/></defs><g><g transform="translate(-1093 -4696)"><use fill="#ccd0d2" xlink:href="#9ls6a"/></g></g></svg>