<svg xmlns="http://www.w3.org/2000/svg" xmlns:xlink="http://www.w3.org/1999/xlink" width="15" height="17" viewBox="0 0 15 17"><defs><path id="g5qta" d="M1195.002 7538.013c-.554 0-1.002.426-1.002.953v4.078c0 .526.448.954 1.002.954.553 0 1.001-.428 1.001-.954v-4.078c0-.527-.448-.953-1.001-.953zm8.4-4.623l-.625-.213a5.021 5.021 0 0 0-2.548-.004l-.628.211c-1.532.632-2.597 2.001-2.597 3.592 0 .02 8.984.002 8.984 0 0-1.587-1.06-2.953-2.586-3.586zm4.606 4.623c-.554 0-1.002.426-1.002.953v4.078c0 .526.448.954 1.002.954.552 0 1.001-.428 1.001-.954v-4.078c0-.527-.449-.953-1.001-.953zm-11.004 6.395c0 1.178 1.057 1.628 1.975 1.632v2.977c0 .548.404.994 1.018.994.613 0 .986-.446.986-.994v-2.977h1.044v2.977c0 .548.404.994 1.018.994.613 0 .955-.446.955-.994v-2.977h.007c.921 0 1.98-.475 1.98-1.632v-6.397h-8.983z"/></defs><g><g transform="translate(-1194 -7533)"><use fill="#fff" xlink:href="#g5qta"/></g></g></svg>