<svg xmlns="http://www.w3.org/2000/svg" xmlns:xlink="http://www.w3.org/1999/xlink" width="28" height="32" viewBox="0 0 28 32"><defs><path id="dug9a" d="M1208.584 6076.959c-2.19 0-3.831 1.212-4.584 1.897v12.108a9.788 9.788 0 0 1 4.334-1.005c3.74 0 6.088.945 8.16 1.776 1.698.684 3.04 1.224 5.006 1.224 2.976 0 5.37-1.282 6.5-2.019v-12.51c-1.746.792-4.086 1.53-6.75 1.53-2.765 0-4.57-.78-6.316-1.532-1.753-.754-3.41-1.47-6.35-1.47 0 0 2.19 0 0 0zm21.416-2v17s-3.5 3-8.5 3-6.833-3-13.166-3a7.932 7.932 0 0 0-4.334 1.294V6106a1 1 0 1 1-2 0v-27.958s2.5-3.084 6.584-3.084c6.333 0 7.666 3 12.666 3s8.75-3 8.75-3z"/></defs><g><g transform="translate(-1202 -6075)"><use fill="#ccd0d2" xlink:href="#dug9a"/></g></g></svg>