<svg xmlns="http://www.w3.org/2000/svg" xmlns:xlink="http://www.w3.org/1999/xlink" width="28" height="32" viewBox="0 0 28 32"><defs><path id="1vfha" d="M1681.94 6106.967c-.935 0-1.885-.094-2.836-.29-3.685-.756-6.73-2.902-8.8-6.043a13.996 13.996 0 0 1-2.038-10.587c.9-4.379 3.737-7.988 7.784-9.901a1 1 0 0 1 .856 1.807c-3.474 1.642-5.909 4.739-6.68 8.496a12.009 12.009 0 0 0 1.747 9.084c1.777 2.695 4.372 4.536 7.534 5.186 6.527 1.337 12.926-2.88 14.267-9.408a12.04 12.04 0 0 0-6.699-13.37 1 1 0 1 1 .848-1.811 14.032 14.032 0 0 1 7.81 15.584c-1.367 6.655-7.248 11.253-13.793 11.253zm.06-31.966a1 1 0 0 1 1 1v11a1 1 0 0 1-2 0v-11a1 1 0 0 1 1-1z"/></defs><g><g transform="translate(-1668 -6075)"><use fill="#ccd0d2" xlink:href="#1vfha"/></g></g></svg>