<svg xmlns="http://www.w3.org/2000/svg" xmlns:xlink="http://www.w3.org/1999/xlink" width="32" height="31" viewBox="0 0 32 31"><defs><path id="g8z6a" d="M989.655 6084.501l.642 1.33 1.462.217 8.307 1.234-6.058 6.043-1.018 1.017.237 1.415 1.416 8.443-7.32-3.938-1.324-.711-1.323.711-7.32 3.939 1.415-8.444.237-1.415-1.018-1.017-6.055-6.043 8.307-1.234 1.462-.217.642-1.33 3.655-7.579zm-5.748-8.22l-3.622 7.52-8.335 1.241a2.297 2.297 0 0 0-1.843 1.512 2.207 2.207 0 0 0 .538 2.287l6.107 6.1-1.417 8.458a2.231 2.231 0 0 0 .95 2.205 2.36 2.36 0 0 0 2.45.132l7.265-3.913 7.267 3.913a2.367 2.367 0 0 0 2.452-.132 2.23 2.23 0 0 0 .946-2.205l-1.417-8.459 6.11-6.1a2.207 2.207 0 0 0 .536-2.286 2.298 2.298 0 0 0-1.843-1.512l-8.333-1.24-3.624-7.52a2.318 2.318 0 0 0-2.094-1.296 2.32 2.32 0 0 0-2.093 1.296z"/></defs><g><g transform="translate(-970 -6075)"><use fill="#ccd0d2" xlink:href="#g8z6a"/></g></g></svg>