<svg xmlns="http://www.w3.org/2000/svg" xmlns:xlink="http://www.w3.org/1999/xlink" width="32" height="28" viewBox="0 0 32 28"><defs><path id="g18oa" d="M523.11 6103.022a1 1 0 1 1 0-2h.286c3.42 0 5.678-3.798 5.678-7.207 0-3.745-3.257-6.758-6.972-6.836l-.721-.015-.214-.69c-1.032-3.337-3.263-5.294-7.235-5.294-4.956 0-8.161 3.674-8.161 8.545l.007.012.08.916-.907.157c-2.211.38-3.974 2.648-3.974 5.163 0 2.846 2.204 5.249 4.776 5.249h.889a1 1 0 1 1 0 2h-.89c-3.655 0-6.744-3.32-6.744-7.25 0-3.209 2.005-6.043 4.784-6.932.346-5.582 4.377-9.86 10.14-9.86 4.528 0 7.526 2.344 8.921 6.045 4.522.487 8.14 4.174 8.14 8.79 0 4.294-2.883 9.072-7.883 9.204zm-4.914-1.889a.693.693 0 0 1 1.01 0l.253.201c.279.293.279.64 0 .933l-3.702 4.055c-.005.005-.006.011-.011.016l-.253.266a.69.69 0 0 1-.507.216.697.697 0 0 1-.509-.216l-.253-.266c-.005-.005-.005-.012-.01-.016l-3.61-3.993a.772.772 0 0 1 0-1.057l.252-.139c.28-.291.732-.23 1.012.063l2.128 2.374v-10.077a1 1 0 1 1 2 0v10.066z"/></defs><g><g transform="translate(-499 -6079)"><use fill="#ccd0d2" xlink:href="#g18oa"/></g></g></svg>