<svg xmlns="http://www.w3.org/2000/svg" xmlns:xlink="http://www.w3.org/1999/xlink" width="32" height="32" viewBox="0 0 32 32"><defs><path id="pk9ma" d="M508.996 4692.009c3.396 0 6.997 2.86 6.997 4.995v4.998c0 1.923-.8 5.604-2.945 7.293a1.998 1.998 0 0 0 .402 3.389l8.703 4.127c.068.03.834.16.834 1.229l.001 1.952-27.984.001v-2.03c0-.793.597-1.044.835-1.153l8.783-4.145a1.999 1.999 0 0 0 .415-3.376c-2.078-1.668-3.045-5.334-3.045-7.287v-4.998c0-2.089 3.637-4.995 7.004-4.995 3.366 0 0 0 0 0zm-9.004 4.995v4.998c0 2.184.996 6.601 3.793 8.846l-8.783 4.146s-1.998.89-1.998 1.998v3.001c0 1.104.895 2 1.998 2h27.986a1.999 1.999 0 0 0 2-2v-3.001c0-1.175-2-1.998-2-1.998l-8.703-4.128c2.77-2.18 3.708-6.464 3.708-8.864v-4.998c0-3.31-4.582-6.995-8.997-6.995-4.416 0-9.004 3.686-9.004 6.995z"/></defs><g><g transform="translate(-493 -4690)"><use fill="#ccd0d2" xlink:href="#pk9ma"/></g></g></svg>