<svg xmlns="http://www.w3.org/2000/svg" xmlns:xlink="http://www.w3.org/1999/xlink" width="32" height="32" viewBox="0 0 32 32"><defs><path id="jlixa" d="M65 6090.08v2.001c0 1.105-1.047 1.781-2 2l-2.599.65a12.032 12.032 0 0 1-.715 1.713l1.39 2.316c.518.828.78 2.048 0 2.829l-1.416 1.414c-.78.782-2.098.64-2.894.088l-2.256-1.437c-.577.3-1.18.555-1.808.758l-.577 2.604c-.172.954-1.005 1.985-2.11 1.985h-2c-1.104 0-1.78-1.047-2-2l-.64-2.56a11.859 11.859 0 0 1-1.959-.823l-2.312 1.473c-.796.553-2.115.694-2.895-.088l-1.415-1.414c-.78-.781-.519-2 0-2.829l1.463-2.437a11.844 11.844 0 0 1-.658-1.593l-2.599-.649c-.953-.219-2-.895-2-2v-2c0-1.104 1.031-1.937 1.984-2.11l2.566-.568c.188-.597.431-1.168.705-1.72l-1.461-2.436c-.52-.828-.78-2.047 0-2.828l1.415-1.414c.78-.781 2.099-.64 2.894-.088l2.308 1.47c.62-.328 1.27-.604 1.947-.819l.642-2.567c.219-.953.896-2 2-2h2c1.105 0 1.938 1.03 2.11 1.984l.576 2.598c.634.205 1.245.465 1.829.767l2.25-1.433c.797-.552 2.115-.693 2.895.088l1.415 1.414c.78.781.519 2 0 2.828l-1.388 2.314c.3.589.562 1.202.762 1.842l2.567.568c.953.173 1.984 1.006 1.984 2.11zm-1.983.085c-.037-.07-.211-.2-.435-.24l-3.696-.821-.346-1.105a9.635 9.635 0 0 0-.635-1.528l-.505-.988 1.98-3.296a1.32 1.32 0 0 0 .181-.45l-1.312-1.277a.75.75 0 0 0-.41.144l-3.223 2.053-1.023-.531a9.907 9.907 0 0 0-1.523-.64l-1.089-.352-.84-3.794c-.026-.145-.155-.318-.141-.339h-1.86a1.408 1.408 0 0 0-.2.485l-.912 3.648-1.063.339a10.04 10.04 0 0 0-1.622.682l-1.027.542-3.354-2.137a1.538 1.538 0 0 0-.34-.14l-1.314 1.314c.017.104.075.283.2.485l2.025 3.372-.487.98c-.254.513-.446.981-.587 1.43l-.347 1.103-3.773.836c-.137.024-.3.142-.335.142l-.004-.001v1.86c.087.06.254.147.485.2l3.672.917.343 1.052c.14.43.32.863.548 1.324l.487.98-2.046 3.408c-.11.175-.163.346-.18.45l1.31 1.276a.75.75 0 0 0 .41-.143l3.292-2.098 1.029.542c.532.282 1.08.512 1.63.685l1.064.338.92 3.682c.047.202.13.362.192.447h1.8c.072-.058.179-.218.217-.418l.824-3.722 1.09-.352a9.826 9.826 0 0 0 1.503-.631l1.023-.53 3.292 2.1c.07.048.214.1.341.14l1.315-1.314a1.415 1.415 0 0 0-.2-.484l-1.96-3.267.502-.986c.242-.475.443-.955.598-1.429l.344-1.05 3.708-.926c.203-.047.363-.132.448-.192zm-14.003 6.845c-3.321 0-6.024-2.696-6.024-6.01 0-3.313 2.703-6.009 6.024-6.009 3.32 0 6.023 2.696 6.023 6.01 0 3.313-2.703 6.01-6.023 6.01zM49 6087c-2.206 0-4 1.795-4 4 0 2.207 1.794 4 4 4s4-1.793 4-4c0-2.205-1.794-4-4-4z"/></defs><g><g transform="translate(-33 -6075)"><use fill="#ccd0d2" xlink:href="#jlixa"/></g></g></svg>