<svg xmlns="http://www.w3.org/2000/svg" xmlns:xlink="http://www.w3.org/1999/xlink" width="14" height="16" viewBox="0 0 14 16"><defs><path id="bghpa" d="M1414.998 6594.005c1.698 0 2.887 1.562 2.887 2.686v2.634c0 1.013-.537 2.133-1.541 2.966-.256.213-.389.55-.35.892a.984.984 0 0 0 .538.78l4.045 2.443c.034.016.417.08.417.614v.976l-11.992.001v-1.015c0-.398.298-.522.417-.577l4.056-2.451a.982.982 0 0 0 .534-.775c.04-.34-.09-.676-.34-.89-.967-.823-1.563-1.935-1.563-2.964v-2.634c0-1.1 1.209-2.686 2.892-2.686 1.683 0 0 0 0 0zm-4.003 2.686v2.634c0 1.151.79 2.625 2.091 3.733l-4.085 2.44s-.999.445-.999.999v1.5a1 1 0 0 0 1 1h11.992a1 1 0 0 0 1-1v-1.5c0-.588-1-1-1-1l-4.071-2.43c1.296-1.076 2.073-2.477 2.073-3.742v-2.634c0-1.744-1.79-3.685-3.998-3.685s-4.003 1.941-4.003 3.685z"/></defs><g><g transform="translate(-1408 -6593)"><use fill="#ddd" xlink:href="#bghpa"/></g></g></svg>