<svg xmlns="http://www.w3.org/2000/svg" xmlns:xlink="http://www.w3.org/1999/xlink" width="122" height="32" viewBox="0 0 122 32"><defs><path id="m0c3a" d="M785 1192h26a3 3 0 0 1 3 3v20a3 3 0 0 1-3 3h-8v4h1a1 1 0 0 1 0 2h-12a1 1 0 1 1 0-2h1v-4h-8a3 3 0 0 1-3-3v-20a3 3 0 0 1 3-3zm-1 4.001v15h28v-15a2 2 0 0 0-2-2h-24a2 2 0 0 0-2 2zm0 18a2 2 0 0 0 2 2h24a2 2 0 0 0 2-2v-1h-28zm11 8h6v-4h-6zm42-30h16a3 3 0 0 1 3 2.999v26a3 3 0 0 1-3 3h-16a3 3 0 0 1-3-3v-26a3 3 0 0 1 3-3zm-1 4V1220a2 2 0 0 0 2 2h14a2 2 0 0 0 2-2v-23.999a2 2 0 0 0-2-2h-14a2 2 0 0 0-2 2zm9 20a2 2 0 1 1 0 4 2 2 0 0 1 0-4zm-2-20h4a1 1 0 1 1 0 2h-4a1 1 0 0 1 0-2zm36-4h22a3 3 0 0 1 3 2.999v26a3 3 0 0 1-3 3h-22a3 3 0 0 1-3-3v-26a3 3 0 0 1 3-3zm-1 4V1220a2 2 0 0 0 2 2h20a2 2 0 0 0 2-2v-23.999a2 2 0 0 0-2-2h-20a2 2 0 0 0-2 2zm12 20a2 2 0 1 1 0 4 2 2 0 0 1 0-4zm-2-20h4a1 1 0 1 1 0 2h-4a1 1 0 0 1 0-2z"/></defs><g><g transform="translate(-782 -1192)"><use fill="#fff" xlink:href="#m0c3a"/></g></g></svg>