<svg xmlns="http://www.w3.org/2000/svg" xmlns:xlink="http://www.w3.org/1999/xlink" width="32" height="29" viewBox="0 0 32 29"><defs><path id="wjgna" d="M802.013 4694.97c.98 0 2.753.47 5.628 3.3l1.425 1.403 1.404-1.426c1.996-2.028 4.12-3.288 5.543-3.288 1.919 0 3.431.657 4.906 2.129a7.284 7.284 0 0 1 2.155 5.19 7.3 7.3 0 0 1-2.168 5.21c-.115.115-6.156 6.632-11.218 12.096a.945.945 0 0 1-.655.26.954.954 0 0 1-.65-.253c-1.233-1.372-10.173-11.312-11.213-12.35a7.291 7.291 0 0 1-2.157-5.196c0-1.96.766-3.804 2.158-5.191 1.353-1.353 2.937-1.885 4.842-1.885 1.905 0 0 0 0 0zm-6.256.47a9.33 9.33 0 0 0 0 13.216c1.045 1.044 11.184 12.322 11.184 12.322a2.95 2.95 0 0 0 2.092.867c.756 0 1.513-.289 2.09-.867 0 0 11.09-11.969 11.208-12.089a9.332 9.332 0 0 0 0-13.218c-1.815-1.811-3.845-2.711-6.318-2.711-2.363 0-5 1.884-6.969 3.884-2.031-2-4.586-3.875-7.031-3.875-2.392 0-4.5.716-6.256 2.47z"/></defs><g><g transform="translate(-793 -4693)"><use fill="#ccd0d2" xlink:href="#wjgna"/></g></g></svg>