<svg xmlns="http://www.w3.org/2000/svg" xmlns:xlink="http://www.w3.org/1999/xlink" width="32" height="32" viewBox="0 0 32 32"><defs><path id="ji2pa" d="M1007 2550.001c8.837 0 16 7.164 16 16 0 8.837-7.163 16-16 16-8.836 0-16-7.163-16-16 0-8.836 7.164-16 16-16zm5.523 6.998h-11.046a3.484 3.484 0 0 0-3.48 3.48v11.046a3.483 3.483 0 0 0 3.48 3.478h11.046c1.919 0 3.48-1.56 3.48-3.478v-11.047c0-1.918-1.561-3.48-3.48-3.48zm1.096 2.012l.393-.001v2.99l-3.01.008-.01-2.989zm-6.619 3.978c2.496 0 3.013 2.345 3.013 3.012a3.016 3.016 0 0 1-3.013 3.012 3.015 3.015 0 0 1-3.012-3.012c0-.667.515-3.012 3.012-3.012zm7.03 8.316c0 .952-.774 1.725-1.726 1.725h-10.64a1.726 1.726 0 0 1-1.725-1.725v-7.308h2.5c-.232.571-.362 1.35-.362 2.004a4.93 4.93 0 0 0 4.923 4.924 4.93 4.93 0 0 0 4.923-4.924c0-.653-.131-1.433-.363-2.004h2.47z"/></defs><g><g transform="translate(-991 -2550)"><use fill="#fff" xlink:href="#ji2pa"/></g></g></svg>