<svg xmlns="http://www.w3.org/2000/svg" xmlns:xlink="http://www.w3.org/1999/xlink" width="32" height="32" viewBox="0 0 32 32"><defs><path id="w9s9a" d="M769.008 6610.985c-9.089 0-9.16-.377-10.285-1.225-.597-.449-1.723-.76-5.838-1.028-.298-.02-.582-.133-.773-.365-.087-.107-2.143-3.105-2.143-7.908 0-4.732 1.472-6.89 1.535-6.99a1 1 0 0 1 .847-.47c3.379 0 8.062-4.312 11.21-11.84.545-1.303.658-2.159 2.658-2.159 1.137 0 2.413.815 3.042 1.86 1.292 2.134.636 6.72.029 9.17 2.062-.016 5.796-.044 7.572-.044 2.472 0 4.107 1.474 4.156 3.628.017.71-.077 1.619-.283 2.088.544.543 1.246 1.361 1.277 2.414.038 1.36-.853 2.396-1.421 2.99.13.396.391.92.366 1.547-.063 1.542-1.253 2.536-1.995 3.055.061.421.11 1.217-.026 1.833-.535 2.457-4.137 3.444-9.928 3.444zm-15.592-4.281c3.584.296 5.5.698 6.51 1.459.783.589.662.822 9.082.822 2.568 0 7.59-.108 7.975-1.87.154-.705-.59-1.399-.592-1.404a1.014 1.014 0 0 1 .518-1.305c.008-.004 2.004-.72 2.05-1.835.03-.714-.46-1.143-.472-1.16-.29-.453-.184-1.073.257-1.38.005-.004 1.299-.788 1.268-1.858-.025-.848-1.144-1.446-1.178-1.466a1.013 1.013 0 0 1-.488-.673c-.057-.283.006-.58.182-.808 0 0 .508-.81.49-1.566-.037-1.623-1.782-1.674-2.156-1.674-2.522 0-9 .026-9 .026a.99.99 0 0 1-.84-.443c-.188-.28-.202-.627-.091-.945.976-2.813 1.522-7.227.616-8.735-.267-.445-.328-.889-1.328-.889-.139 0-.469.11-.812.93-3.344 7.995-8.335 12.619-12.422 13.037-.353.804-1.016 2.47-1.016 5.492 0 3.086.977 5.473 1.447 6.245z"/></defs><g><g transform="translate(-750 -6579)"><use fill="#e2574c" xlink:href="#w9s9a"/></g></g></svg>