<svg xmlns="http://www.w3.org/2000/svg" xmlns:xlink="http://www.w3.org/1999/xlink" width="95" height="84" viewBox="0 0 95 84"><defs><path id="l63xa" d="M913.895 7298v-84h93.21v84zm64.133-5.013c2.387 0 5.315-1.65 6.509-3.667l17.547-29.666c1.193-2.017 1.193-5.318 0-7.336l-17.547-29.665c-1.194-2.018-4.122-3.667-6.51-3.667h-35.094c-2.386 0-5.315 1.65-6.508 3.667l-17.547 29.665c-1.194 2.018-1.194 5.319 0 7.336l17.547 29.666c1.193 2.017 4.122 3.667 6.508 3.667z"/><path id="l63xb" d="M942.933 7292.987c-2.386 0-5.315-1.65-6.508-3.667l-17.547-29.666c-1.194-2.017-1.194-5.318 0-7.336l17.547-29.665c1.193-2.018 4.122-3.667 6.508-3.667h35.095c2.387 0 5.315 1.65 6.509 3.667l17.547 29.665c1.193 2.018 1.193 5.319 0 7.336l-17.547 29.666c-1.194 2.017-4.122 3.667-6.51 3.667z"/><clipPath id="l63xc"><use fill="#fff" xlink:href="#l63xa"/></clipPath></defs><g><g transform="translate(-913 -7214)"><use fill="#e2574c" xlink:href="#l63xb"/><use fill="#fff" fill-opacity="0" stroke="#fff" stroke-linecap="round" stroke-linejoin="round" stroke-miterlimit="50" stroke-width="10" clip-path="url(&quot;#l63xc&quot;)" xlink:href="#l63xb"/></g><g transform="translate(-913 -7214)"><g><text fill="#fff" style="line-height:16px" dominant-baseline="text-before-edge" font-family="'VarelaRound','VarelaRound'" font-size="24" font-style="none" font-weight="400" transform="translate(945 7247)"><tspan letter-spacing=".72" style="font-kerning:normal">U</tspan><tspan letter-spacing=".72" style="font-kerning:normal">p</tspan></text></g></g></g></svg>