<svg xmlns="http://www.w3.org/2000/svg" xmlns:xlink="http://www.w3.org/1999/xlink" width="36" height="32" viewBox="0 0 36 32"><defs><path id="lrmxa" d="M30.337 698v-32h35.326v32zm24.262-2.004c.898 0 2-.625 2.45-1.388l6.606-11.225c.45-.763.45-2.012 0-2.776l-6.606-11.223c-.45-.765-1.552-1.388-2.45-1.388H41.387c-.899 0-2.001.623-2.45 1.388l-6.607 11.223c-.449.764-.449 2.013 0 2.776l6.606 11.225c.45.763 1.552 1.388 2.45 1.388z"/><path id="lrmxb" d="M41.387 695.996c-.899 0-2.001-.625-2.45-1.388l-6.607-11.225c-.449-.763-.449-2.012 0-2.776l6.606-11.223c.45-.765 1.552-1.388 2.45-1.388H54.6c.898 0 2 .623 2.45 1.388l6.606 11.223c.45.764.45 2.013 0 2.776l-6.606 11.225c-.45.763-1.552 1.388-2.45 1.388z"/><path id="lrmxd" d="M51.424 678.97c-.335-1.622-1.72-2.536-3.295-2.536-1.637 0-2.75.79-2.75 1.954 0 1.393 1.848 1.85 3.737 2.432 2.098.667 4.722 1.685 4.722 4.408 0 2.517-2.204 4.346-5.478 4.346-3.127 0-5.184-1.788-5.813-4.324l.015-.004a1.132 1.132 0 0 1 1.109-1.352c.493 0 .913.318 1.067.761l.033-.009c.273 1.518 1.553 2.869 3.673 2.869 1.868 0 2.96-.956 2.96-2.203 0-1.81-2.267-2.183-4.345-2.87-1.721-.582-4.05-1.393-4.05-3.93 0-2.266 2.203-4.074 5.225-4.074 2.729 0 4.87 1.6 5.415 3.929l-.091.024a1.132 1.132 0 0 1-1.123 1.01c-.37 0-.7-.181-.906-.459z"/><clipPath id="lrmxc"><use fill="#fff" xlink:href="#lrmxa"/></clipPath></defs><g><g transform="translate(-30 -666)"><use fill="#e2574c" xlink:href="#lrmxb"/><use fill="#fff" fill-opacity="0" stroke="#fff" stroke-linecap="round" stroke-linejoin="round" stroke-miterlimit="50" stroke-width="4" clip-path="url(&quot;#lrmxc&quot;)" xlink:href="#lrmxb"/></g><g transform="translate(-30 -666)"><use fill="#fff" xlink:href="#lrmxd"/></g></g></svg>