<svg xmlns="http://www.w3.org/2000/svg" xmlns:xlink="http://www.w3.org/1999/xlink" width="32" height="32" viewBox="0 0 32 32"><defs><path id="kqqoa" d="M32 6581.71v23.501l8 3.259v-23.805zm28 26.603v-23.307l-8-3.45v23.745zm-18-23.652v23.825l8-3.163v-23.797zm19.037-1.442c.53.148.963.72.963 1.27v25.648c0 .46-.304.766-.714.766a.942.942 0 0 1-.249-.036l-10.032-3.94-9.969 4.046L30.963 6607c-.53-.147-.963-.72-.963-1.269v-25.937c0-.46.304-.768.714-.765.08 0 .163.01.249.034l10.062 3.95 9.982-3.951z"/></defs><g><g transform="translate(-30 -6579)"><use fill="#e2574c" xlink:href="#kqqoa"/></g></g></svg>