<svg xmlns="http://www.w3.org/2000/svg" xmlns:xlink="http://www.w3.org/1999/xlink" width="32" height="48" viewBox="0 0 32 48"><defs><path id="t0i4a" d="M86.995 11646.125c0 1.559-.119 2-.995 2.876l-13.42 17.595c-1.277 1.278-1.907 1.265-3.172 0L56 11649c-.872-.872-1.007-1.281-1.007-2.876v-15.276c0-1.04.714-2.315 1.587-2.834l12.828-7.638c.872-.52 2.3-.52 3.172 0l12.828 7.638c.873.519 1.587 1.794 1.587 2.834z"/><path id="t0i4c" d="M86.995 11619.878H54.992v8.276c0 1.04.714 2.314 1.587 2.834l12.828 7.637c.872.52 2.3.52 3.172 0l12.828-7.637c.873-.52 1.587-1.795 1.587-2.834z"/><clipPath id="t0i4b"><use xlink:href="#t0i4a"/></clipPath></defs><g><g transform="translate(-55 -11620)"><use fill="#f2695e" xlink:href="#t0i4a"/></g><g clip-path="url(#t0i4b)" opacity=".3" transform="translate(-55 -11620)"><use fill="#ce463b" xlink:href="#t0i4c"/></g></g></svg>