<svg xmlns="http://www.w3.org/2000/svg" xmlns:xlink="http://www.w3.org/1999/xlink" width="89" height="32" viewBox="0 0 89 32"><defs><path id="mmrua" d="M275.062 4611h5.38v25.555h4.561v6.447h-9.941zm-79.063 31.886V4611h7.251l2.573 13.364 2.924-13.364h7.017v28.72l4.562-28.72h7.134l4.444 28.72v-28.603h9.474s3.275.586 4.912 5.158l-.702-5.275h5.731l2.69 16.528 2.807-16.411h16.14v5.978h-4.795v6.565h4.562v6.682h-4.445v6.095h4.678v6.448h-10.409v-30.713l-5.38 30.713h-6.432l-3.392-20.398s-.585 5.627-3.743 8.206l4.094 12.192h-5.614l-3.977-10.668v10.668h-11.345l-.584-3.048h-4.328l-.936 3.048h-10.76v-11.724l-2.807 11.724h-2.924l-2.573-11.605v11.486zm29.59-9.262l-1.638-9.73-1.403 9.73zm12.397-7.385c3.86-.234 3.509-5.04 3.509-5.04-.585-4.69-3.509-4.454-3.509-4.454z"/></defs><g><g transform="translate(-196 -4611)"><use xlink:href="#mmrua"/></g></g></svg>