<svg xmlns="http://www.w3.org/2000/svg" xmlns:xlink="http://www.w3.org/1999/xlink" width="32" height="32" viewBox="0 0 32 32"><defs><path id="274ya" d="M800 5934c8.837 0 16 7.165 16 16 0 8.838-7.163 16-16 16s-16-7.162-16-16c0-8.835 7.163-16 16-16zm-14 16c0 7.733 6.268 14.001 14 14.001s14-6.268 14-14-6.268-14-14-14-14 6.268-14 14zm8-1h5v-4.999a1 1 0 1 1 2 0v5h5a1 1 0 0 1 0 2h-5v5a1 1 0 0 1-2 0v-5h-5a1 1 0 0 1 0-2z"/></defs><g><g transform="translate(-784 -5934)"><use fill="#fff" xlink:href="#274ya"/></g></g></svg>