<svg xmlns="http://www.w3.org/2000/svg" xmlns:xlink="http://www.w3.org/1999/xlink" width="30" height="40" viewBox="0 0 30 40"><defs><path id="2cega" d="M538.596 98.991c-.892-4.286-4.571-6.703-8.752-6.703-4.349 0-7.303 2.087-7.303 5.165 0 3.681 4.906 4.89 9.923 6.428 5.574 1.759 12.543 4.452 12.543 11.65 0 6.65-5.854 11.485-14.55 11.485-8.307 0-13.77-4.726-15.442-11.43l.04-.01a3 3 0 0 1 5.78-1.559l.089-.024c.725 4.01 4.125 7.583 9.756 7.583 4.961 0 7.86-2.528 7.86-5.825 0-4.781-6.02-5.77-11.54-7.583-4.57-1.539-10.759-3.682-10.759-10.386 0-5.989 5.854-10.77 13.881-10.77 7.247 0 12.934 4.232 14.383 10.385l-.242.066a3 3 0 0 1-5.389 1.453z"/></defs><g><g transform="translate(-515 -87)"><use fill="#fff" xlink:href="#2cega"/></g></g></svg>