<svg xmlns="http://www.w3.org/2000/svg" xmlns:xlink="http://www.w3.org/1999/xlink" width="12" height="16" viewBox="0 0 12 16"><defs><path id="jk3ma" d="M459.424 677.97c-.335-1.621-1.72-2.536-3.295-2.536-1.637 0-2.749.79-2.749 1.954 0 1.393 1.847 1.85 3.736 2.433 2.099.665 4.722 1.684 4.722 4.407 0 2.516-2.204 4.346-5.478 4.346-3.127 0-5.184-1.789-5.813-4.325l.015-.004a1.132 1.132 0 0 1 1.109-1.352c.494 0 .914.319 1.067.763l.033-.01c.273 1.518 1.554 2.87 3.673 2.87 1.868 0 2.96-.956 2.96-2.205 0-1.808-2.267-2.183-4.345-2.869-1.721-.582-4.05-1.393-4.05-3.93 0-2.266 2.203-4.074 5.225-4.074 2.729 0 4.87 1.6 5.415 3.93l-.091.024a1.132 1.132 0 0 1-1.123 1.007c-.37 0-.7-.18-.906-.458z"/></defs><g><g clip-path="url(#clip-2628)" transform="translate(-450 -673)"><use fill="#fff" xlink:href="#jk3ma"/></g></g></svg>