<svg xmlns="http://www.w3.org/2000/svg" xmlns:xlink="http://www.w3.org/1999/xlink" width="804" height="33" viewBox="0 0 804 33"><defs><path id="4g72a" d="M581.898 4033.644l6.447-10.599c-1.863-1.156-3.928-1.765-6.463-1.77-6.775-.005-12.304 5.454-12.278 12.39-.026 6.911 5.512 12.457 12.308 12.457 4.425 0 8.311-2.359 10.482-5.914l.575 1.82c-2.993 4.018-8.632 7.15-16.084 7.142-12.24-.003-18.884-7.53-18.88-15.505-.004-8 6.968-15.455 18.88-15.46 8.35 0 13.692 3.132 17.221 8.139zm57.605 15.213v-18.22c0-1.214-.994-2.21-2.216-2.21a2.22 2.22 0 0 0-2.228 2.21l.006 18.22h-8.892v-20.43h-5.932l8.545-4.027c.587-.226 1.168-.38 1.834-.38 2.223 0 4.064 1.618 4.394 3.73l7.086-3.326c.571-.224 1.19-.403 1.851-.403 2.453 0 4.474 1.976 4.474 4.4v20.436zm-16.17.011h-8.895l-1.153-4.757c-1.831 2.599-5.527 4.704-10.075 4.695-4.077.009-9.208-3.162-9.222-7.933.014-4.755 5.145-7.866 9.237-7.88 2.902.014 5.492.757 7.612 2.424l-1.986-7.025h-11.544l10.446-3.839c5.266-1.946 9.419 1.678 10.29 4.895zm-11.147-7.96c0-2.493-2.04-4.515-4.553-4.515-2.517 0-4.564 2.022-4.564 4.516 0 2.499 2.047 4.52 4.564 4.52 2.512 0 4.553-2.021 4.553-4.52zm51.784-16.887c6.96 0 12.597 5.595 12.597 12.491 0 6.9-5.636 12.488-12.597 12.488-6.955 0-12.592-5.588-12.592-12.488 0-6.896 5.637-12.491 12.592-12.491zm4.85 19.795l-4.42-16.072c-.383-1.422-1.824-2.276-3.345-1.852-1.423.394-2.275 1.828-1.86 3.301l4.439 16.067c.37 1.444 1.837 2.245 3.285 1.863 1.493-.429 2.297-1.847 1.901-3.307zm26.247 5.052l.006-18.225a2.216 2.216 0 0 0-2.223-2.206c-1.227 0-2.225.99-2.225 2.206l.004 18.225h-8.891v-20.431h-5.928l8.542-4.027c.586-.23 1.178-.379 1.834-.379 2.222 0 4.068 1.613 4.392 3.729l7.087-3.332c.571-.218 1.189-.397 1.85-.397 2.463 0 4.484 1.972 4.484 4.396v20.441zm357.429-29.955h4.256v9.887c-1.308.078-2.76.011-4.122.034-.193-2.714-2.061-4.181-4.19-5.162-3.595-1.654-9.01-2.192-13.744-1.609-2.26.278-4.816.895-5.564 2.481-1.043 2.211 1.797 2.904 3.453 3.217 1.766.333 3.151.433 4.726.603 6.728.731 13.387 1.062 17.799 4.258 2.051 1.486 3.765 3.898 3.351 7.508-.356 3.109-2.394 5.04-4.726 6.335-2.414 1.34-5.395 2.09-8.513 2.548-1.54.225-3.165.405-4.827.301-3.219-.2-6.372-.994-9.251-1.743-1.11-.287-2.17-.572-3.219-.938-.645-.226-1.02-.583-1.977-.57-.078.548-.012 1.24-.034 1.843h-4.86v-11.229h4.626c.116 2.824 1.826 4.368 3.787 5.498 1.96 1.13 4.494 1.841 7.073 2.212 5.315.764 11.982.571 14.011-3.453-.107-1.328-1.105-1.916-2.078-2.346-2.98-1.317-7.427-1.563-11.129-1.978-5.042-.563-10.388-1.357-13.81-3.687-1.812-1.234-3.093-3.007-2.983-5.832.1-2.578 1.528-4.374 3.084-5.631 3.099-2.503 8.059-4.023 13.408-4.29 4.504-.227 8.579.884 12 2.144.563.208 1.16.426 1.71.67.499.224 1.078.765 1.675.37.15-.353.028-.978.068-1.441zm32.211-1.677c6.043-.276 11.36 1.272 15.319 3.655 2.052 1.234 3.673 2.553 5.162 4.458 1.354 1.73 2.604 4.05 2.883 6.737.604 5.83-2.782 9.996-6.235 12.603-1.83 1.381-3.915 2.482-6.301 3.318-2.368.83-5.06 1.508-8.08 1.508-1.55 0-3.19.06-4.658-.1-4.363-.473-7.79-1.674-10.894-3.519-1.974-1.175-3.72-2.634-5.162-4.459-1.428-1.806-2.553-3.972-2.85-6.77-.325-3.078.542-5.636 1.744-7.676 2.36-4.006 6.215-6.687 10.96-8.28a28.15 28.15 0 0 1 3.788-1.005c1.37-.256 2.773-.399 4.324-.47zm-7.91 8.38c-1.476 1.292-2.924 3.198-3.486 5.531-.167.693-.284 1.893-.268 2.413.107 3.665 1.983 6.204 4.123 7.91 2.296 1.834 5.371 2.913 9.084 2.917 3.69.005 6.614-1.316 8.782-3.184 2.113-1.821 3.998-4.45 3.82-8.112-.181-3.752-2.097-6.217-4.156-7.81-2.334-1.806-5.338-2.888-9.084-2.883-3.65.004-6.82 1.472-8.815 3.218zm34.994-5.866h12.872c.61 0 1.312-.102 1.81 0 .377.078.908.745 1.274 1.073 6.139 5.508 12.253 11.04 18.368 16.492v-10.994c0-.578.063-1.206-.066-1.576-.541-1.541-3.782-.678-5.8-.906v-4.089h17.095v4.089h-2.48c-1.322 0-2.597-.226-2.95.805-.243.71-.1 1.967-.1 2.882v20.715h-6.168c-.327 0-1.241-.972-1.508-1.206-7.023-6.142-13.953-12.556-20.917-18.569v13.877c0 .675-.12 1.618.135 1.877.353.359 2.012.167 2.681.167h2.815v3.854h-16.994v-3.854h2.748c.846 0 2.052.138 2.38-.335.245-.352.135-1.635.135-2.413v-15.185c0-.752.145-1.985-.068-2.447-.269-.588-1.52-.47-2.413-.47h-2.882v-3.686c-.003-.048-.006-.095.033-.101zm48.939 0h20.212a50.41 50.41 0 0 1 0 4.089h-1.576c-.485 0-1.215-.093-1.408.168-.303.41.245 1.034.47 1.307 1.964 2.393 3.968 4.411 6.067 6.67.1.11.427.504.47.504.046 0 .379-.405.469-.503 2.214-2.41 4.103-4.656 6.435-7.04.133-.135.37-.387.369-.57-.01-.954-2.349-.377-3.252-.536v-4.089h16.425v4.089h-3.452c-.398 0-.834-.074-1.14 0-.236.057-.635.563-.905.839-3.141 3.209-6.061 6.578-9.185 9.821-.799.83-1.633 1.783-2.514 2.682-.264.27-.747.671-.804.904-.098.4 0 1.043 0 1.576v3.117c0 .535-.043 1.235.1 1.442.306.438 1.808.234 2.615.234h2.984v3.653c-6.24.056-13.517.057-19.877 0v-3.653h2.681c.699 0 2.116.158 2.447-.234.36-.427.167-2.236.167-3.118v-1.643c0-.56.091-1.202 0-1.642-.053-.261-.471-.647-.737-.938-3.721-4.081-7.432-8.044-11.162-12.201-.243-.271-.61-.783-.805-.839-.325-.092-.867 0-1.306 0h-3.822a48.132 48.132 0 0 1 0-3.988c-.037-.048-.036-.082.034-.101zm191.332-2.75h5.38v25.555h4.561v6.447h-9.941zm-79.063 31.885v-31.884h7.251l2.573 13.363 2.924-13.363h7.017v28.719l4.562-28.72h7.134l4.445 28.72v-28.602h9.473s3.275.586 4.912 5.157l-.701-5.274h5.73l2.69 16.528 2.807-16.41h16.14v5.978h-4.795v6.564h4.561v6.681h-4.444v6.096h4.679v6.447h-10.41v-30.712l-5.38 30.712h-6.432l-3.392-20.396s-.585 5.627-3.743 8.205l4.094 12.191h-5.614l-3.977-10.667v10.667h-11.345l-.584-3.048h-4.328l-.935 3.048h-10.76v-11.722l-2.808 11.722h-2.924l-2.573-11.605v11.487zm29.59-9.26l-1.638-9.73-1.403 9.73zm12.397-7.386c3.86-.234 3.509-5.04 3.509-5.04-.585-4.69-3.509-4.454-3.509-4.454zm-462.019 3.665l-3.585-6.62-3.484 6.62zm.025-10.708l9.908 17.62h-6.149l-1.717-3.115h-11.201l-1.62 3.116h-6.174l9.759-17.621zm-73.452 11.853c.025 1.873.797 2.018 2.389 2.018h6.772c1.17 0 2.365-.12 2.365-1.483 0-1.533-.648-1.63-7.767-1.63-8.315 0-9.26-.973-9.26-5.307 0-3.189.298-5.647 7.268-5.647h7.718c6.373 0 6.97 2.118 6.97 5.209v.56h-5.526c0-1.29-.15-1.825-2.69-1.825h-6.123c-1.245 0-2.091.414-2.091 1.363 0 1.532.672 1.582 6.596 1.556 8.588-.024 10.58.487 10.58 5.623 0 4.746-1.643 5.526-8.986 5.526h-6.697c-5.029 0-7.045-.926-7.045-4.746v-1.217zm162.503-11.853l10.38 12.802.05-12.802H958v17.62h-8.565l-10.38-12.802-.05 12.803h-5.525v-17.621zm-19.183 0v4.089h-14.19v2.823h13.444v3.65h-13.443v2.823h14.514v4.236h-20.04v-17.621zm-45.567-.196h8.315c6.273 0 7.145 2.215 7.145 5.647v.56h-5.427c0-1.754-1.019-1.97-2.79-1.97h-5.998c-2.786 0-3.51.655-3.51 3.674v2.19c0 3.017.724 3.675 3.51 3.675h5.9c1.447 0 2.888-.218 2.888-1.923v-.511h-6.871v-3.651h12.398v5.014c0 5.063-2.688 5.307-8.91 5.307h-6.65c-4.978 0-7.94-1.217-7.94-6.377v-5.257c0-5.16 2.962-6.378 7.94-6.378zm-64.657.196v6.472h2.59l6.97-6.472h7.518l-9.76 8.616 10.905 9.005h-7.817l-7.967-6.766h-2.439v6.766h-5.526v-17.621z"/></defs><g><g transform="translate(-558 -4017)"><use xlink:href="#4g72a"/></g></g></svg>