<svg xmlns="http://www.w3.org/2000/svg" xmlns:xlink="http://www.w3.org/1999/xlink" width="184" height="18" viewBox="0 0 184 18"><defs><path id="aqupa" d="M226.967 4454.904l-3.585-6.62-3.484 6.62zm.025-10.708l9.908 17.622h-6.149l-1.718-3.116h-11.2l-1.62 3.116h-6.174l9.759-17.622zm-73.452 11.853c.025 1.872.797 2.018 2.389 2.018h6.772c1.17 0 2.364-.12 2.364-1.484 0-1.532-.647-1.63-7.766-1.63-8.315 0-9.26-.972-9.26-5.306 0-3.188.298-5.648 7.268-5.648h7.718c6.373 0 6.97 2.119 6.97 5.21v.56h-5.526c0-1.291-.15-1.825-2.69-1.825h-6.123c-1.245 0-2.091.414-2.091 1.363 0 1.533.672 1.582 6.596 1.556 8.589-.023 10.58.487 10.58 5.622 0 4.747-1.643 5.527-8.986 5.527h-6.697c-5.029 0-7.045-.925-7.045-4.747v-1.216zm162.503-11.853l10.38 12.803.05-12.803H332v17.622h-8.565l-10.38-12.803-.05 12.803h-5.526v-17.622zm-19.183 0v4.089h-14.19v2.824h13.444v3.65h-13.443v2.822h14.514v4.237h-20.04v-17.622zm-45.567-.197h8.315c6.273 0 7.145 2.216 7.145 5.648v.56h-5.427c0-1.753-1.019-1.97-2.79-1.97h-5.998c-2.786 0-3.51.656-3.51 3.674v2.19c0 3.018.724 3.675 3.51 3.675h5.9c1.447 0 2.888-.217 2.888-1.923v-.511h-6.871v-3.651h12.398v5.015c0 5.062-2.688 5.306-8.91 5.306h-6.65c-4.978 0-7.94-1.217-7.94-6.377v-5.257c0-5.16 2.962-6.379 7.94-6.379zm-64.657.197v6.473h2.59l6.97-6.473h7.518l-9.76 8.616 10.905 9.006h-7.817l-7.967-6.767h-2.439v6.767h-5.526v-17.622z"/></defs><g><g transform="translate(-148 -4444)"><use xlink:href="#aqupa"/></g></g></svg>