<svg xmlns="http://www.w3.org/2000/svg" xmlns:xlink="http://www.w3.org/1999/xlink" width="186" height="33" viewBox="0 0 186 33"><defs><path id="44oha" d="M179.496 4520.913h4.256v9.887c-1.308.078-2.76.012-4.123.034-.192-2.714-2.06-4.18-4.19-5.161-3.594-1.655-9.01-2.193-13.743-1.61-2.26.279-4.816.896-5.564 2.48-1.043 2.212 1.797 2.905 3.453 3.218 1.766.333 3.151.433 4.726.603 6.727.732 13.387 1.062 17.799 4.257 2.051 1.487 3.765 3.899 3.351 7.51-.356 3.108-2.394 5.04-4.726 6.334-2.414 1.342-5.395 2.09-8.513 2.547-1.54.226-3.166.406-4.828.302-3.218-.2-6.37-.994-9.25-1.742-1.11-.288-2.17-.572-3.219-.938-.645-.226-1.02-.583-1.977-.57-.078.547-.012 1.239-.034 1.842h-4.86v-11.228h4.626c.115 2.824 1.826 4.367 3.787 5.497 1.96 1.13 4.493 1.842 7.073 2.212 5.315.764 11.982.571 14.011-3.452-.107-1.33-1.105-1.917-2.078-2.347-2.98-1.318-7.427-1.563-11.129-1.978-5.042-.563-10.388-1.357-13.81-3.687-1.812-1.235-3.093-3.008-2.983-5.831.1-2.578 1.527-4.374 3.084-5.632 3.099-2.502 8.059-4.022 13.408-4.29 4.504-.227 8.579.883 12 2.144.563.208 1.16.426 1.71.671.499.223 1.078.764 1.675.369.15-.354.028-.979.068-1.441zm32.211-1.677c6.043-.276 11.36 1.272 15.319 3.655 2.051 1.234 3.673 2.553 5.162 4.457 1.354 1.731 2.604 4.052 2.883 6.739.604 5.828-2.782 9.995-6.235 12.602-1.83 1.381-3.915 2.482-6.302 3.318-2.367.83-5.06 1.508-8.078 1.508-1.55 0-3.192.06-4.66-.1-4.362-.474-7.79-1.674-10.893-3.52-1.974-1.173-3.72-2.633-5.162-4.458-1.428-1.805-2.553-3.971-2.85-6.77-.325-3.078.542-5.635 1.744-7.676 2.36-4.006 6.215-6.686 10.96-8.28a28.35 28.35 0 0 1 3.788-1.006c1.37-.255 2.773-.397 4.324-.469zm-7.91 8.38c-1.476 1.291-2.924 3.198-3.486 5.53-.167.694-.284 1.894-.268 2.414.107 3.665 1.983 6.204 4.123 7.91 2.296 1.834 5.371 2.913 9.084 2.917 3.69.004 6.614-1.317 8.781-3.184 2.114-1.821 4-4.449 3.822-8.112-.182-3.751-2.098-6.218-4.157-7.81-2.335-1.807-5.338-2.888-9.084-2.883-3.65.005-6.82 1.472-8.815 3.219zm34.994-5.866h12.872c.61 0 1.312-.102 1.81 0 .377.078.908.745 1.274 1.073 6.139 5.508 12.252 11.041 18.368 16.492v-10.995c0-.578.063-1.204-.066-1.575-.542-1.542-3.783-.679-5.8-.906v-4.089h17.095v4.09h-2.48c-1.322 0-2.597-.228-2.95.804-.244.711-.1 1.967-.1 2.882v20.716h-6.168c-.327 0-1.241-.973-1.508-1.206-7.023-6.142-13.953-12.556-20.916-18.57v13.877c0 .675-.12 1.618.134 1.877.353.359 2.012.167 2.681.167h2.815v3.855h-16.994v-3.855h2.748c.846 0 2.052.139 2.38-.336.245-.35.135-1.634.135-2.413v-15.185c0-.751.145-1.984-.068-2.445-.27-.589-1.52-.47-2.413-.47h-2.882v-3.687c-.003-.047-.006-.094.033-.101zm48.939 0h20.212a50.443 50.443 0 0 1 0 4.09h-1.576c-.485 0-1.215-.094-1.408.168-.303.41.245 1.033.47 1.306 1.964 2.393 3.968 4.411 6.067 6.671.1.108.427.503.47.503.045 0 .378-.405.469-.503 2.214-2.409 4.103-4.656 6.434-7.04.134-.135.371-.387.37-.57-.01-.953-2.349-.377-3.252-.536v-4.089h16.425v4.09h-3.452c-.398 0-.834-.074-1.14 0-.236.057-.635.562-.905.838-3.141 3.208-6.061 6.578-9.185 9.821-.799.83-1.633 1.783-2.514 2.682-.264.27-.747.671-.804.905-.098.4 0 1.042 0 1.574v3.119c0 .535-.043 1.234.1 1.44.306.44 1.808.234 2.615.234h2.984v3.655c-6.24.055-13.517.056-19.877 0v-3.655h2.681c.699 0 2.115.159 2.447-.233.36-.426.167-2.236.167-3.117v-1.644c0-.559.091-1.2 0-1.642-.053-.26-.471-.647-.737-.937-3.721-4.082-7.432-8.045-11.162-12.202-.243-.27-.61-.783-.805-.839-.325-.091-.867 0-1.306 0h-3.822a48.098 48.098 0 0 1 0-3.988c-.037-.048-.036-.082.034-.101z"/></defs><g><g transform="translate(-147 -4519)"><use xlink:href="#44oha"/></g></g></svg>