<svg xmlns="http://www.w3.org/2000/svg" xmlns:xlink="http://www.w3.org/1999/xlink" width="32" height="32" viewBox="0 0 32 32"><defs><path id="lle0a" d="M913 2550.001c8.837 0 16 7.164 16 16 0 8.837-7.163 16-16 16-8.836 0-16-7.163-16-16 0-8.836 7.164-16 16-16zm10.003 10.78a7.974 7.974 0 0 1-2.24.595 3.813 3.813 0 0 0 1.715-2.094 7.947 7.947 0 0 1-2.476.92 3.95 3.95 0 0 0-2.846-1.196c-2.154 0-3.9 1.695-3.9 3.784 0 .297.035.586.102.863a11.183 11.183 0 0 1-8.037-3.954 3.684 3.684 0 0 0-.528 1.902c0 1.313.688 2.472 1.734 3.15a3.963 3.963 0 0 1-1.766-.474v.049c0 1.832 1.344 3.362 3.128 3.71a3.994 3.994 0 0 1-1.761.065c.496 1.503 1.936 2.597 3.642 2.628a7.973 7.973 0 0 1-4.842 1.62c-.315 0-.625-.019-.93-.053a11.283 11.283 0 0 0 5.977 1.7c7.172 0 11.093-5.766 11.093-10.767 0-.164-.003-.328-.01-.49a7.785 7.785 0 0 0 1.945-1.958z"/></defs><g><g transform="translate(-897 -2550)"><use fill="#fff" xlink:href="#lle0a"/></g></g></svg>